<svg width="360" height="56" viewBox="0 0 360 56" fill="none" xmlns="http://www.w3.org/2000/svg">
<g filter="url(#filter0_dd)">
<rect width="360" height="48" transform="translate(0 5)" fill="#F9F9F9"/>
<path d="M39.5903 12C41.7733 12 42.823 12.2027 43.9137 12.786C44.9028 13.315 45.685 14.0972 46.214 15.0863C46.7973 16.177 47 17.2267 47 19.4097V26.5903C47 28.7733 46.7973 29.823 46.214 30.9137C45.685 31.9028 44.9028 32.685 43.9137 33.214C42.823 33.7973 41.7733 34 39.5903 34H32.4097C30.2267 34 29.177 33.7973 28.0863 33.214C27.0972 32.685 26.315 31.9028 25.786 30.9137C25.2027 29.823 25 28.7733 25 26.5903V19.4097C25 17.2267 25.2027 16.177 25.786 15.0863C26.315 14.0972 27.0972 13.315 28.0863 12.786C29.177 12.2027 30.2267 12 32.4097 12H39.5903ZM26.999 20L27 26.5903C27 28.4714 27.1425 29.2092 27.5496 29.9705C27.8922 30.6111 28.3889 31.1078 29.0295 31.4504C29.7908 31.8575 30.5286 32 32.4097 32H39.5903C41.4714 32 42.2092 31.8575 42.9705 31.4504C43.6111 31.1078 44.1078 30.6111 44.4504 29.9705C44.8575 29.2092 45 28.4714 45 26.5903L44.999 20H26.999ZM39.5903 14H32.4097C30.5286 14 29.7908 14.1425 29.0295 14.5496C28.3889 14.8922 27.8922 15.3889 27.5496 16.0295C27.2641 16.5635 27.1087 17.0859 27.0414 17.9995H44.9586C44.8913 17.0859 44.7359 16.5635 44.4504 16.0295C44.1078 15.3889 43.6111 14.8922 42.9705 14.5496C42.2092 14.1425 41.4714 14 39.5903 14Z" fill="#2975CC"/>
<path d="M21.7037 48H20.4732V44.8408H17.2945V48H16.0592V40.8906H17.2945V43.8496H20.4732V40.8906H21.7037V48ZM23.0316 45.3096C23.0316 44.792 23.1342 44.3265 23.3393 43.9131C23.5443 43.4964 23.8324 43.1774 24.2035 42.9561C24.5746 42.7314 25.001 42.6191 25.4828 42.6191C26.1957 42.6191 26.7735 42.8486 27.2162 43.3076C27.6622 43.7666 27.9031 44.3753 27.9389 45.1338L27.9437 45.4121C27.9437 45.9329 27.8428 46.3984 27.641 46.8086C27.4424 47.2188 27.156 47.5361 26.7816 47.7607C26.4105 47.9854 25.9809 48.0977 25.4926 48.0977C24.7471 48.0977 24.1498 47.8503 23.7006 47.3555C23.2546 46.8574 23.0316 46.195 23.0316 45.3682V45.3096ZM24.2182 45.4121C24.2182 45.9557 24.3305 46.3822 24.5551 46.6914C24.7797 46.9974 25.0922 47.1504 25.4926 47.1504C25.893 47.1504 26.2038 46.9941 26.4252 46.6816C26.6498 46.3691 26.7621 45.9118 26.7621 45.3096C26.7621 44.7757 26.6465 44.3525 26.4154 44.04C26.1876 43.7275 25.8767 43.5713 25.4828 43.5713C25.0954 43.5713 24.7878 43.7259 24.56 44.0352C24.3321 44.3411 24.2182 44.8001 24.2182 45.4121ZM29.2375 48V42.7168H31.3811C32.1037 42.7168 32.6538 42.8438 33.0314 43.0977C33.409 43.3483 33.5979 43.7096 33.5979 44.1816C33.5979 44.4258 33.5214 44.6455 33.3684 44.8408C33.2186 45.0329 32.9956 45.181 32.6994 45.2852C33.0445 45.3568 33.3179 45.5016 33.5197 45.7197C33.7215 45.9378 33.8225 46.195 33.8225 46.4912C33.8225 46.9827 33.6402 47.3571 33.2756 47.6143C32.9143 47.8714 32.3934 48 31.7131 48H29.2375ZM30.424 45.749V47.0625H31.7229C32.3316 47.0625 32.6359 46.8444 32.6359 46.4082C32.6359 45.9688 32.3267 45.749 31.7082 45.749H30.424ZM30.424 44.8994H31.4006C32.0744 44.8994 32.4113 44.7008 32.4113 44.3037C32.4113 43.887 32.0923 43.6722 31.4543 43.6592H30.424V44.8994ZM34.8281 45.3096C34.8281 44.792 34.9307 44.3265 35.1357 43.9131C35.3408 43.4964 35.6289 43.1774 36 42.9561C36.3711 42.7314 36.7975 42.6191 37.2793 42.6191C37.9922 42.6191 38.57 42.8486 39.0127 43.3076C39.4587 43.7666 39.6995 44.3753 39.7354 45.1338L39.7402 45.4121C39.7402 45.9329 39.6393 46.3984 39.4375 46.8086C39.2389 47.2188 38.9525 47.5361 38.5781 47.7607C38.207 47.9854 37.7773 48.0977 37.2891 48.0977C36.5436 48.0977 35.9463 47.8503 35.4971 47.3555C35.0511 46.8574 34.8281 46.195 34.8281 45.3682V45.3096ZM36.0146 45.4121C36.0146 45.9557 36.127 46.3822 36.3516 46.6914C36.5762 46.9974 36.8887 47.1504 37.2891 47.1504C37.6895 47.1504 38.0003 46.9941 38.2217 46.6816C38.4463 46.3691 38.5586 45.9118 38.5586 45.3096C38.5586 44.7757 38.443 44.3525 38.2119 44.04C37.984 43.7275 37.6732 43.5713 37.2793 43.5713C36.8919 43.5713 36.5843 43.7259 36.3564 44.0352C36.1286 44.3411 36.0146 44.8001 36.0146 45.4121ZM43.1141 47.1504C43.4103 47.1504 43.6561 47.0641 43.8514 46.8916C44.0467 46.7191 44.1508 46.5059 44.1639 46.252H45.282C45.269 46.5807 45.1665 46.8883 44.9744 47.1748C44.7824 47.458 44.5219 47.6826 44.1932 47.8486C43.8644 48.0146 43.5096 48.0977 43.1287 48.0977C42.3898 48.0977 41.8038 47.8584 41.3709 47.3799C40.938 46.9014 40.7215 46.2406 40.7215 45.3975V45.2754C40.7215 44.4714 40.9363 43.8285 41.366 43.3467C41.7957 42.8617 42.3816 42.6191 43.1238 42.6191C43.7521 42.6191 44.2631 42.8031 44.657 43.1709C45.0542 43.5355 45.2625 44.0156 45.282 44.6113H44.1639C44.1508 44.3086 44.0467 44.0596 43.8514 43.8643C43.6593 43.6689 43.4135 43.5713 43.1141 43.5713C42.7299 43.5713 42.4337 43.7113 42.2254 43.9912C42.0171 44.2679 41.9113 44.6895 41.908 45.2559V45.4463C41.908 46.0192 42.0105 46.4473 42.2156 46.7305C42.424 47.0104 42.7234 47.1504 43.1141 47.1504ZM50.5357 43.6592H48.8219V48H47.6354V43.6592H45.941V42.7168H50.5357V43.6592ZM54.8275 42.7168H56.0092V48H54.8275V44.4746L52.7572 48H51.5756V42.7168H52.7572V46.2422L54.8275 42.7168Z" fill="#2975CC"/>
<path d="M103.116 24C104.181 24 104.739 24.1078 105.321 24.4187C105.861 24.708 106.292 25.1385 106.581 25.6795C106.892 26.2608 107 26.819 107 27.8844V30.1156C107 31.181 106.892 31.7392 106.581 32.3206C106.292 32.8615 105.861 33.292 105.321 33.5813C104.739 33.8922 104.181 34 103.116 34H100.884C99.819 34 99.2608 33.8922 98.6794 33.5813C98.1385 33.292 97.708 32.8615 97.4187 32.3206C97.1078 31.7392 97 31.181 97 30.1156V27.8844C97 26.819 97.1078 26.2608 97.4187 25.6795C97.708 25.1385 98.1385 24.708 98.6794 24.4187C99.2608 24.1078 99.819 24 100.884 24H103.116ZM115.116 24C116.181 24 116.739 24.1078 117.321 24.4187C117.861 24.708 118.292 25.1385 118.581 25.6795C118.892 26.2608 119 26.819 119 27.8844V30.1156C119 31.181 118.892 31.7392 118.581 32.3206C118.292 32.8615 117.861 33.292 117.321 33.5813C116.739 33.8922 116.181 34 115.116 34H112.884C111.819 34 111.261 33.8922 110.679 33.5813C110.139 33.292 109.708 32.8615 109.419 32.3206C109.108 31.7392 109 31.181 109 30.1156V27.8844C109 26.819 109.108 26.2608 109.419 25.6795C109.708 25.1385 110.139 24.708 110.679 24.4187C111.261 24.1078 111.819 24 112.884 24H115.116ZM103.116 26H100.884C100.121 26 99.8747 26.0476 99.6226 26.1823C99.4302 26.2852 99.2852 26.4303 99.1823 26.6227C99.0476 26.8747 99 27.1209 99 27.8844V30.1156C99 30.8791 99.0476 31.1253 99.1823 31.3774C99.2852 31.5698 99.4302 31.7148 99.6226 31.8177C99.8747 31.9525 100.121 32 100.884 32H103.116C103.879 32 104.125 31.9525 104.377 31.8177C104.57 31.7148 104.715 31.5698 104.818 31.3774C104.952 31.1253 105 30.8791 105 30.1156V27.8844C105 27.1209 104.952 26.8747 104.818 26.6227C104.715 26.4303 104.57 26.2852 104.377 26.1823C104.125 26.0476 103.879 26 103.116 26ZM115.116 26H112.884C112.121 26 111.875 26.0476 111.623 26.1823C111.43 26.2852 111.285 26.4303 111.182 26.6227C111.048 26.8747 111 27.1209 111 27.8844V30.1156C111 30.8791 111.048 31.1253 111.182 31.3774C111.285 31.5698 111.43 31.7148 111.623 31.8177C111.875 31.9525 112.121 32 112.884 32H115.116C115.879 32 116.125 31.9525 116.377 31.8177C116.57 31.7148 116.715 31.5698 116.818 31.3774C116.952 31.1253 117 30.8791 117 30.1156V27.8844C117 27.1209 116.952 26.8747 116.818 26.6227C116.715 26.4303 116.57 26.2852 116.377 26.1823C116.125 26.0476 115.879 26 115.116 26ZM114.891 11.4126C115.522 11.6038 115.993 11.9223 116.747 12.6756L118.324 14.2533C119.078 15.0067 119.396 15.4776 119.587 16.1085C119.765 16.6956 119.765 17.3044 119.587 17.8915C119.396 18.5224 119.078 18.9933 118.324 19.7467L116.747 21.3244C115.993 22.0778 115.522 22.3962 114.891 22.5875C114.304 22.7654 113.696 22.7654 113.109 22.5875C112.478 22.3962 112.007 22.0778 111.253 21.3244L109.676 19.7467C108.922 18.9933 108.604 18.5224 108.413 17.8915C108.235 17.3044 108.235 16.6956 108.413 16.1085C108.604 15.4776 108.922 15.0067 109.676 14.2533L111.253 12.6756C112.007 11.9223 112.478 11.6038 113.109 11.4126C113.696 11.2346 114.304 11.2346 114.891 11.4126ZM103.116 12C104.181 12 104.739 12.1078 105.321 12.4187C105.861 12.708 106.292 13.1385 106.581 13.6795C106.892 14.2608 107 14.819 107 15.8844V18.1156C107 19.181 106.892 19.7392 106.581 20.3206C106.292 20.8615 105.861 21.292 105.321 21.5813C104.739 21.8922 104.181 22 103.116 22H100.884C99.819 22 99.2608 21.8922 98.6794 21.5813C98.1385 21.292 97.708 20.8615 97.4187 20.3206C97.1078 19.7392 97 19.181 97 18.1156V15.8844C97 14.819 97.1078 14.2608 97.4187 13.6795C97.708 13.1385 98.1385 12.708 98.6794 12.4187C99.2608 12.1078 99.819 12 100.884 12H103.116ZM113.689 13.3266C113.415 13.4095 113.207 13.55 112.668 14.0898L111.09 15.6676C110.55 16.2074 110.409 16.4151 110.327 16.6887C110.263 16.8975 110.263 17.1026 110.327 17.3114C110.409 17.5849 110.55 17.7926 111.09 18.3325L112.668 19.9102C113.207 20.45 113.415 20.5905 113.689 20.6734C113.897 20.7367 114.103 20.7367 114.311 20.6734C114.585 20.5905 114.793 20.45 115.332 19.9102L116.91 18.3325C117.45 17.7926 117.591 17.5849 117.673 17.3114C117.737 17.1026 117.737 16.8975 117.673 16.6887C117.591 16.4151 117.45 16.2074 116.91 15.6676L115.332 14.0898C114.793 13.55 114.585 13.4095 114.311 13.3266C114.103 13.2633 113.897 13.2633 113.689 13.3266ZM103.116 14H100.884C100.121 14 99.8747 14.0476 99.6226 14.1823C99.4302 14.2852 99.2852 14.4303 99.1823 14.6227C99.0476 14.8747 99 15.1209 99 15.8844V18.1156C99 18.8791 99.0476 19.1253 99.1823 19.3774C99.2852 19.5698 99.4302 19.7148 99.6226 19.8177C99.8747 19.9525 100.121 20 100.884 20H103.116C103.879 20 104.125 19.9525 104.377 19.8177C104.57 19.7148 104.715 19.5698 104.818 19.3774C104.952 19.1253 105 18.8791 105 18.1156V15.8844C105 15.1209 104.952 14.8747 104.818 14.6227C104.715 14.4303 104.57 14.2852 104.377 14.1823C104.125 14.0476 103.879 14 103.116 14Z" fill="#99A2AD"/>
<path d="M92.4146 45.6855C92.343 46.444 92.0631 47.0365 91.5748 47.4629C91.0865 47.8861 90.4371 48.0977 89.6266 48.0977C89.0602 48.0977 88.5605 47.9642 88.1275 47.6973C87.6979 47.4271 87.3658 47.0446 87.1314 46.5498C86.8971 46.055 86.775 45.4805 86.7652 44.8262V44.1621C86.7652 43.4915 86.884 42.9007 87.1217 42.3896C87.3593 41.8786 87.6995 41.4847 88.1422 41.208C88.5882 40.9313 89.1025 40.793 89.6852 40.793C90.4697 40.793 91.1012 41.0062 91.5797 41.4326C92.0582 41.859 92.3365 42.4613 92.4146 43.2393H91.1842C91.1256 42.7282 90.9758 42.3604 90.735 42.1357C90.4973 41.9079 90.1474 41.7939 89.6852 41.7939C89.148 41.7939 88.7346 41.9909 88.4449 42.3848C88.1585 42.7754 88.012 43.3499 88.0055 44.1084V44.7383C88.0055 45.5065 88.1422 46.0924 88.4156 46.4961C88.6923 46.8997 89.096 47.1016 89.6266 47.1016C90.1116 47.1016 90.4762 46.9925 90.7203 46.7744C90.9645 46.5563 91.1191 46.1934 91.1842 45.6855H92.4146ZM95.935 48.0977C95.183 48.0977 94.5727 47.8617 94.1039 47.3896C93.6384 46.9144 93.4057 46.2829 93.4057 45.4951V45.3486C93.4057 44.8213 93.5066 44.3509 93.7084 43.9375C93.9135 43.5208 94.1999 43.1969 94.5678 42.9658C94.9356 42.7347 95.3458 42.6191 95.7982 42.6191C96.5176 42.6191 97.0727 42.8486 97.4633 43.3076C97.8572 43.7666 98.0541 44.416 98.0541 45.2559V45.7344H94.602C94.6378 46.1706 94.7826 46.5156 95.0365 46.7695C95.2937 47.0234 95.6159 47.1504 96.0033 47.1504C96.5469 47.1504 96.9896 46.9307 97.3314 46.4912L97.9711 47.1016C97.7595 47.4173 97.4763 47.6631 97.1215 47.8389C96.7699 48.0114 96.3744 48.0977 95.935 48.0977ZM95.7934 43.5713C95.4678 43.5713 95.2042 43.6852 95.0023 43.9131C94.8038 44.141 94.6768 44.4583 94.6215 44.8652H96.8822V44.7773C96.8562 44.3802 96.7504 44.0807 96.5648 43.8789C96.3793 43.6738 96.1221 43.5713 95.7934 43.5713ZM103.806 45.4121C103.806 46.2292 103.62 46.8818 103.249 47.3701C102.878 47.8551 102.38 48.0977 101.755 48.0977C101.176 48.0977 100.712 47.9072 100.363 47.5264V50.0312H99.177V42.7168H100.271L100.32 43.2539C100.668 42.8307 101.141 42.6191 101.74 42.6191C102.385 42.6191 102.89 42.86 103.254 43.3418C103.622 43.8203 103.806 44.486 103.806 45.3389V45.4121ZM102.624 45.3096C102.624 44.7822 102.518 44.3639 102.307 44.0547C102.099 43.7454 101.799 43.5908 101.408 43.5908C100.923 43.5908 100.575 43.791 100.363 44.1914V46.5352C100.578 46.9453 100.93 47.1504 101.418 47.1504C101.796 47.1504 102.09 46.999 102.302 46.6963C102.517 46.3903 102.624 45.9281 102.624 45.3096ZM105.104 48V42.7168H107.248C107.971 42.7168 108.521 42.8438 108.898 43.0977C109.276 43.3483 109.465 43.7096 109.465 44.1816C109.465 44.4258 109.388 44.6455 109.235 44.8408C109.086 45.0329 108.863 45.181 108.566 45.2852C108.911 45.3568 109.185 45.5016 109.387 45.7197C109.589 45.9378 109.689 46.195 109.689 46.4912C109.689 46.9827 109.507 47.3571 109.143 47.6143C108.781 47.8714 108.26 48 107.58 48H105.104ZM106.291 45.749V47.0625H107.59C108.199 47.0625 108.503 46.8444 108.503 46.4082C108.503 45.9688 108.194 45.749 107.575 45.749H106.291ZM106.291 44.8994H107.268C107.941 44.8994 108.278 44.7008 108.278 44.3037C108.278 43.887 107.959 43.6722 107.321 43.6592H106.291V44.8994ZM114.216 42.7168H115.397V48H114.216V44.4746L112.145 48H110.964V42.7168H112.145V46.2422L114.216 42.7168ZM119.03 47.1504C119.326 47.1504 119.572 47.0641 119.767 46.8916C119.963 46.7191 120.067 46.5059 120.08 46.252H121.198C121.185 46.5807 121.082 46.8883 120.89 47.1748C120.698 47.458 120.438 47.6826 120.109 47.8486C119.78 48.0146 119.425 48.0977 119.045 48.0977C118.306 48.0977 117.72 47.8584 117.287 47.3799C116.854 46.9014 116.637 46.2406 116.637 45.3975V45.2754C116.637 44.4714 116.852 43.8285 117.282 43.3467C117.712 42.8617 118.297 42.6191 119.04 42.6191C119.668 42.6191 120.179 42.8031 120.573 43.1709C120.97 43.5355 121.178 44.0156 121.198 44.6113H120.08C120.067 44.3086 119.963 44.0596 119.767 43.8643C119.575 43.6689 119.329 43.5713 119.03 43.5713C118.646 43.5713 118.35 43.7113 118.141 43.9912C117.933 44.2679 117.827 44.6895 117.824 45.2559V45.4463C117.824 46.0192 117.926 46.4473 118.131 46.7305C118.34 47.0104 118.639 47.1504 119.03 47.1504ZM123.571 44.3965H124.733C125.166 44.3965 125.543 44.4714 125.866 44.6211C126.188 44.7708 126.432 44.9808 126.598 45.251C126.767 45.5212 126.852 45.8353 126.852 46.1934C126.852 46.737 126.66 47.1732 126.276 47.502C125.892 47.8307 125.381 47.9967 124.743 48H122.384V42.7168H123.571V44.3965ZM128.917 48H127.731V42.7168H128.917V48ZM123.571 45.3486V47.0527H124.728C125.018 47.0527 125.246 46.9811 125.412 46.8379C125.581 46.6914 125.665 46.4847 125.665 46.2178C125.665 45.9508 125.582 45.7409 125.416 45.5879C125.254 45.4316 125.032 45.3519 124.752 45.3486H123.571Z" fill="#99A2AD"/>
<path fill-rule="evenodd" clip-rule="evenodd" d="M168.537 22.4989C168.537 16.839 173.826 12.5 180.018 12.5C186.211 12.5 191.5 16.839 191.5 22.4989C191.5 28.1589 186.211 32.4979 180.018 32.4979C178.645 32.4979 177.325 32.288 176.1 31.9013C174.656 33.2498 172.556 33.898 169.988 33.9989C168.942 34.04 168.187 32.9519 168.625 31.978C169.247 30.5866 170.049 28.9915 170.145 27.6002C169.128 26.1195 168.537 24.3721 168.537 22.4989ZM180.018 14.5C174.633 14.5 170.537 18.2189 170.537 22.4989C170.537 24.0359 171.051 25.4778 171.959 26.6996C172.087 26.872 172.156 27.081 172.156 27.2957C172.156 28.9295 171.505 30.471 170.841 31.9339C172.897 31.7155 174.246 31.0571 175.06 30.1C175.333 29.7786 175.778 29.6631 176.173 29.8114C177.345 30.2516 178.646 30.4979 180.018 30.4979C185.403 30.4979 189.5 26.779 189.5 22.4989C189.5 18.2189 185.403 14.5 180.018 14.5Z" fill="#99A2AD"/>
<path d="M158.14 45.6855C158.069 46.444 157.789 47.0365 157.301 47.4629C156.812 47.8861 156.163 48.0977 155.352 48.0977C154.786 48.0977 154.286 47.9642 153.853 47.6973C153.424 47.4271 153.092 47.0446 152.857 46.5498C152.623 46.055 152.501 45.4805 152.491 44.8262V44.1621C152.491 43.4915 152.61 42.9007 152.847 42.3896C153.085 41.8786 153.425 41.4847 153.868 41.208C154.314 40.9313 154.828 40.793 155.411 40.793C156.195 40.793 156.827 41.0062 157.305 41.4326C157.784 41.859 158.062 42.4613 158.14 43.2393H156.91C156.851 42.7282 156.702 42.3604 156.461 42.1357C156.223 41.9079 155.873 41.7939 155.411 41.7939C154.874 41.7939 154.46 41.9909 154.171 42.3848C153.884 42.7754 153.738 43.3499 153.731 44.1084V44.7383C153.731 45.5065 153.868 46.0924 154.141 46.4961C154.418 46.8997 154.822 47.1016 155.352 47.1016C155.837 47.1016 156.202 46.9925 156.446 46.7744C156.69 46.5563 156.845 46.1934 156.91 45.6855H158.14ZM159.112 45.3096C159.112 44.792 159.214 44.3265 159.42 43.9131C159.625 43.4964 159.913 43.1774 160.284 42.9561C160.655 42.7314 161.081 42.6191 161.563 42.6191C162.276 42.6191 162.854 42.8486 163.296 43.3076C163.742 43.7666 163.983 44.3753 164.019 45.1338L164.024 45.4121C164.024 45.9329 163.923 46.3984 163.721 46.8086C163.523 47.2188 163.236 47.5361 162.862 47.7607C162.491 47.9854 162.061 48.0977 161.573 48.0977C160.827 48.0977 160.23 47.8503 159.781 47.3555C159.335 46.8574 159.112 46.195 159.112 45.3682V45.3096ZM160.298 45.4121C160.298 45.9557 160.411 46.3822 160.635 46.6914C160.86 46.9974 161.172 47.1504 161.573 47.1504C161.973 47.1504 162.284 46.9941 162.505 46.6816C162.73 46.3691 162.842 45.9118 162.842 45.3096C162.842 44.7757 162.727 44.3525 162.496 44.04C162.268 43.7275 161.957 43.5713 161.563 43.5713C161.176 43.5713 160.868 43.7259 160.64 44.0352C160.412 44.3411 160.298 44.8001 160.298 45.4121ZM165.005 45.3096C165.005 44.792 165.108 44.3265 165.313 43.9131C165.518 43.4964 165.806 43.1774 166.177 42.9561C166.548 42.7314 166.975 42.6191 167.456 42.6191C168.169 42.6191 168.747 42.8486 169.19 43.3076C169.636 43.7666 169.877 44.3753 169.913 45.1338L169.917 45.4121C169.917 45.9329 169.816 46.3984 169.615 46.8086C169.416 47.2188 169.13 47.5361 168.755 47.7607C168.384 47.9854 167.954 48.0977 167.466 48.0977C166.721 48.0977 166.123 47.8503 165.674 47.3555C165.228 46.8574 165.005 46.195 165.005 45.3682V45.3096ZM166.192 45.4121C166.192 45.9557 166.304 46.3822 166.529 46.6914C166.753 46.9974 167.066 47.1504 167.466 47.1504C167.867 47.1504 168.177 46.9941 168.399 46.6816C168.623 46.3691 168.736 45.9118 168.736 45.3096C168.736 44.7757 168.62 44.3525 168.389 44.04C168.161 43.7275 167.85 43.5713 167.456 43.5713C167.069 43.5713 166.761 43.7259 166.534 44.0352C166.306 44.3411 166.192 44.8001 166.192 45.4121ZM173.609 43.0098C174.273 43.0098 174.805 43.2327 175.205 43.6787C175.606 44.1214 175.806 44.7236 175.806 45.4854V45.5439C175.806 46.3057 175.588 46.9225 175.152 47.3945C174.719 47.8665 174.129 48.1025 173.384 48.1025C172.658 48.1025 172.072 47.8617 171.626 47.3799C171.18 46.8981 170.957 46.2406 170.957 45.4072V45.0654C170.957 43.9261 171.159 43.0244 171.563 42.3604C171.966 41.6963 172.569 41.2812 173.369 41.1152C173.819 41.0241 174.108 40.9281 174.238 40.8271C174.372 40.723 174.439 40.583 174.439 40.4072H175.396C175.396 40.736 175.342 41.0029 175.235 41.208C175.127 41.4131 174.963 41.5807 174.741 41.7109C174.52 41.8379 174.139 41.9583 173.599 42.0723C173.104 42.1764 172.726 42.362 172.466 42.6289C172.209 42.8958 172.036 43.2653 171.948 43.7373C172.42 43.2523 172.974 43.0098 173.609 43.0098ZM173.374 43.9619C172.99 43.9619 172.689 44.0921 172.471 44.3525C172.253 44.6097 172.144 45.0068 172.144 45.5439C172.144 46.0518 172.251 46.4473 172.466 46.7305C172.681 47.0137 172.987 47.1553 173.384 47.1553C173.778 47.1553 174.082 47.0137 174.297 46.7305C174.515 46.444 174.624 46.0143 174.624 45.4414C174.624 44.9857 174.515 44.626 174.297 44.3623C174.082 44.0954 173.775 43.9619 173.374 43.9619ZM178.042 42.7168V47.0527H179.692V42.7168H180.879V47.0527H182.534V42.7168H183.716V47.0527H184.619L184.521 49.5674H183.442V48H176.855V42.7168H178.042ZM187.939 48.0977C187.187 48.0977 186.577 47.8617 186.108 47.3896C185.643 46.9144 185.41 46.2829 185.41 45.4951V45.3486C185.41 44.8213 185.511 44.3509 185.713 43.9375C185.918 43.5208 186.204 43.1969 186.572 42.9658C186.94 42.7347 187.35 42.6191 187.803 42.6191C188.522 42.6191 189.077 42.8486 189.468 43.3076C189.861 43.7666 190.058 44.416 190.058 45.2559V45.7344H186.606C186.642 46.1706 186.787 46.5156 187.041 46.7695C187.298 47.0234 187.62 47.1504 188.008 47.1504C188.551 47.1504 188.994 46.9307 189.336 46.4912L189.975 47.1016C189.764 47.4173 189.481 47.6631 189.126 47.8389C188.774 48.0114 188.379 48.0977 187.939 48.0977ZM187.798 43.5713C187.472 43.5713 187.208 43.6852 187.007 43.9131C186.808 44.141 186.681 44.4583 186.626 44.8652H188.887V44.7773C188.86 44.3802 188.755 44.0807 188.569 43.8789C188.384 43.6738 188.126 43.5713 187.798 43.5713ZM195.659 48H194.472V45.8662H192.417V48H191.23V42.7168H192.417V44.9189H194.472V42.7168H195.659V48ZM200.424 42.7168H201.606V48H200.424V44.4746L198.354 48H197.172V42.7168H198.354V46.2422L200.424 42.7168ZM207.299 42.7168V48H206.117V46.0615H205.009L203.881 48H202.651L203.896 45.8662C203.57 45.7295 203.32 45.5342 203.144 45.2803C202.971 45.0264 202.885 44.735 202.885 44.4062C202.885 43.9147 203.074 43.5127 203.451 43.2002C203.832 42.8844 204.345 42.7233 204.989 42.7168H207.299ZM204.071 44.4355C204.071 44.6569 204.153 44.8376 204.316 44.9775C204.482 45.1143 204.693 45.1826 204.95 45.1826H206.117V43.6592H205.024C204.734 43.6592 204.503 43.7324 204.33 43.8789C204.158 44.0254 204.071 44.2109 204.071 44.4355Z" fill="#99A2AD"/>
<path fill-rule="evenodd" clip-rule="evenodd" d="M250 35C245.306 35 241.5 31.1999 241.5 26.5121H243.5C243.5 30.0969 246.41 33.0029 250 33.0028L250.5 33.0028C251.052 33.0028 251.5 33.4499 251.5 34.0014C251.5 34.5529 251.052 35 250.5 35L250 35Z" fill="#99A2AD"/>
<path fill-rule="evenodd" clip-rule="evenodd" d="M254 20.0214C254 19.4699 254.448 19.0229 255 19.0229C257.185 19.0229 259.102 20.174 260.151 21.8998C260.438 22.3712 260.288 22.9854 259.815 23.2716C259.343 23.5578 258.728 23.4076 258.442 22.9362C257.746 21.7915 256.468 21.02 255 21.02C254.448 21.02 254 20.5729 254 20.0214Z" fill="#99A2AD"/>
<path fill-rule="evenodd" clip-rule="evenodd" d="M255.5 32.9972L261.499 29.5134C261.499 29.5132 261.499 29.5129 261.5 29.5127C261.5 29.5112 261.5 29.5096 261.5 29.5079C261.5 29.5061 261.5 29.5045 261.5 29.503C261.499 29.5028 261.499 29.5026 261.499 29.5023L255.5 26.0185C255.5 26.0191 255.5 26.0198 255.5 26.0205V32.9952C255.5 32.9959 255.5 32.9966 255.5 32.9972ZM262.504 31.2398C263.832 30.4686 263.832 28.5472 262.504 27.7759L256.499 24.2886C255.168 23.5151 253.5 24.478 253.5 26.0205V32.9952C253.5 34.5377 255.168 35.5006 256.499 34.7271L262.504 31.2398Z" fill="#99A2AD"/>
<path fill-rule="evenodd" clip-rule="evenodd" d="M253.639 13.031C252.883 12.8633 252.134 13.3427 251.972 14.0988L250.978 18.7328C250.862 19.2721 250.33 19.6155 249.79 19.5C249.25 19.3844 248.906 18.8536 249.022 18.3143L250.017 13.6803C250.412 11.8399 252.232 10.6732 254.072 11.0815C255.792 11.4631 256.934 13.0949 256.701 14.8386L255.991 20.1534C255.918 20.7001 255.415 21.0841 254.868 21.0112C254.32 20.9383 253.936 20.4361 254.009 19.8895L254.718 14.5747C254.814 13.8583 254.345 13.1878 253.639 13.031Z" fill="#99A2AD"/>
<path d="M245.223 15.0547C245.152 14.2353 245.799 13.5307 246.623 13.5307C247.267 13.5307 247.829 13.9687 247.985 14.593L249.03 18.7658C249.164 19.3008 249.707 19.6261 250.243 19.4923C250.778 19.3586 251.104 18.8164 250.97 18.2814L249.925 14.1087C249.547 12.5953 248.185 11.5336 246.623 11.5336C244.626 11.5336 243.058 13.2414 243.231 15.2277L243.971 23.722L245.875 22.5336L245.223 15.0547Z" fill="#99A2AD"/>
<path fill-rule="evenodd" clip-rule="evenodd" d="M249.472 23.7518C249.321 23.0735 248.697 22.6068 248.003 22.653L246.767 22.7353C244.929 22.8577 243.5 24.3826 243.5 26.2225V26.5121C243.5 27.0636 243.052 27.5107 242.5 27.5107C241.948 27.5107 241.5 27.0636 241.5 26.5121V26.2225C241.5 23.3311 243.745 20.9349 246.634 20.7426L247.87 20.6603C249.55 20.5485 251.06 21.6776 251.425 23.3186C251.849 25.2238 250.585 27.0942 248.657 27.4151L248.164 27.4971C247.62 27.5878 247.104 27.2203 247.014 26.6763C246.923 26.1323 247.291 25.6178 247.836 25.5272L248.328 25.4451C249.125 25.3125 249.648 24.5394 249.472 23.7518Z" fill="#99A2AD"/>
<path d="M238.563 44.9531H237.723V48H236.493V40.8906H237.723V43.8789H238.402L240.492 40.8906H242.005L239.564 44.2939L242.22 48H240.736L238.563 44.9531ZM247.479 42.7168V48H246.292V43.6738H244.798L244.7 45.5146C244.639 46.4001 244.468 47.0365 244.188 47.4238C243.911 47.8079 243.486 48 242.913 48H242.547L242.542 47.0137L242.786 46.9893C243.047 46.9535 243.236 46.7956 243.353 46.5156C243.473 46.2324 243.55 45.7181 243.582 44.9727L243.68 42.7168H247.479ZM252.239 42.7168H253.421V48H252.239V44.4746L250.169 48H248.987V42.7168H250.169V46.2422L252.239 42.7168ZM259.363 48H258.177V43.6738H256.116V48H254.929V42.7168H259.363V48ZM262.102 44.3965H263.264C263.697 44.3965 264.075 44.4714 264.397 44.6211C264.719 44.7708 264.963 44.9808 265.129 45.251C265.299 45.5212 265.383 45.8353 265.383 46.1934C265.383 46.737 265.191 47.1732 264.807 47.502C264.423 47.8307 263.912 47.9967 263.274 48H260.916V42.7168H262.102V44.3965ZM267.449 48H266.262V42.7168H267.449V48ZM262.102 45.3486V47.0527H263.259C263.549 47.0527 263.777 46.9811 263.943 46.8379C264.112 46.6914 264.197 46.4847 264.197 46.2178C264.197 45.9508 264.114 45.7409 263.948 45.5879C263.785 45.4316 263.564 45.3519 263.284 45.3486H262.102Z" fill="#99A2AD"/>
<path d="M324 11C330.627 11 336 16.3726 336 23C336 29.6274 330.627 35 324 35C317.373 35 312 29.6274 312 23C312 16.3726 317.373 11 324 11ZM324 29.5C321.914 29.5 319.92 30.082 318.203 31.149C319.838 32.3146 321.839 33 324 33C326.161 33 328.161 32.3148 329.796 31.15C328.079 30.0818 326.086 29.5 324 29.5ZM324 13C318.477 13 314 17.4772 314 23C314 25.6157 315.004 27.9968 316.648 29.7788C318.786 28.3082 321.331 27.5 324 27.5C326.669 27.5 329.215 28.3084 331.353 29.7774C332.996 27.9959 334 25.6152 334 23C334 17.4772 329.523 13 324 13ZM324 16.5C326.624 16.5 328.75 18.6258 328.75 21.25C328.75 23.8742 326.624 26 324 26C321.376 26 319.25 23.8742 319.25 21.25C319.25 18.6258 321.376 16.5 324 16.5ZM324 18.5C322.48 18.5 321.25 19.7304 321.25 21.25C321.25 22.7696 322.48 24 324 24C325.52 24 326.75 22.7696 326.75 21.25C326.75 19.7304 325.52 18.5 324 18.5Z" fill="#99A2AD"/>
<path d="M308.38 48H307.15V41.8867H304.02V48H302.79V40.8906H308.38V48ZM314.586 45.4121C314.586 46.2292 314.401 46.8818 314.03 47.3701C313.659 47.8551 313.161 48.0977 312.536 48.0977C311.956 48.0977 311.492 47.9072 311.144 47.5264V50.0312H309.957V42.7168H311.051L311.1 43.2539C311.448 42.8307 311.922 42.6191 312.521 42.6191C313.165 42.6191 313.67 42.86 314.035 43.3418C314.402 43.8203 314.586 44.486 314.586 45.3389V45.4121ZM313.405 45.3096C313.405 44.7822 313.299 44.3639 313.087 44.0547C312.879 43.7454 312.579 43.5908 312.189 43.5908C311.704 43.5908 311.356 43.791 311.144 44.1914V46.5352C311.359 46.9453 311.71 47.1504 312.199 47.1504C312.576 47.1504 312.871 46.999 313.082 46.6963C313.297 46.3903 313.405 45.9281 313.405 45.3096ZM315.572 45.3096C315.572 44.792 315.675 44.3265 315.88 43.9131C316.085 43.4964 316.373 43.1774 316.744 42.9561C317.115 42.7314 317.542 42.6191 318.024 42.6191C318.737 42.6191 319.314 42.8486 319.757 43.3076C320.203 43.7666 320.444 44.3753 320.48 45.1338L320.485 45.4121C320.485 45.9329 320.384 46.3984 320.182 46.8086C319.983 47.2188 319.697 47.5361 319.322 47.7607C318.951 47.9854 318.522 48.0977 318.033 48.0977C317.288 48.0977 316.691 47.8503 316.241 47.3555C315.795 46.8574 315.572 46.195 315.572 45.3682V45.3096ZM316.759 45.4121C316.759 45.9557 316.871 46.3822 317.096 46.6914C317.321 46.9974 317.633 47.1504 318.033 47.1504C318.434 47.1504 318.745 46.9941 318.966 46.6816C319.191 46.3691 319.303 45.9118 319.303 45.3096C319.303 44.7757 319.187 44.3525 318.956 44.04C318.728 43.7275 318.418 43.5713 318.024 43.5713C317.636 43.5713 317.329 43.7259 317.101 44.0352C316.873 44.3411 316.759 44.8001 316.759 45.4121ZM321.49 45.4316C321.49 44.569 321.66 43.8854 321.998 43.3809C322.34 42.873 322.815 42.6191 323.424 42.6191C323.671 42.6191 323.896 42.6647 324.098 42.7559V40.5H325.279V42.7754C325.488 42.6712 325.732 42.6191 326.012 42.6191C326.617 42.6191 327.091 42.8714 327.433 43.376C327.778 43.8773 327.95 44.5967 327.95 45.5342C327.95 46.3252 327.778 46.9502 327.433 47.4092C327.088 47.8682 326.617 48.0977 326.021 48.0977C325.751 48.0977 325.504 48.0488 325.279 47.9512V50.0312H324.098V47.9707C323.899 48.0553 323.671 48.0977 323.414 48.0977C322.844 48.0977 322.389 47.8877 322.047 47.4678C321.708 47.0446 321.524 46.4635 321.495 45.7246L321.49 45.4316ZM326.764 45.4316C326.764 44.8392 326.669 44.3818 326.48 44.0596C326.292 43.734 326.025 43.5713 325.68 43.5713C325.533 43.5713 325.4 43.5924 325.279 43.6348V47.1016C325.387 47.1341 325.523 47.1504 325.689 47.1504C326.406 47.1504 326.764 46.5775 326.764 45.4316ZM322.672 45.5342C322.672 46.0615 322.76 46.4635 322.936 46.7402C323.111 47.0137 323.372 47.1504 323.717 47.1504C323.863 47.1504 323.99 47.1341 324.098 47.1016V43.6201C323.987 43.5876 323.863 43.5713 323.727 43.5713C323.388 43.5713 323.128 43.7292 322.945 44.0449C322.763 44.3574 322.672 44.8538 322.672 45.5342ZM332.471 42.7168H333.653V48H332.471V44.4746L330.401 48H329.22V42.7168H330.401V46.2422L332.471 42.7168ZM339.605 42.7168V48H338.419V43.6738H336.924L336.827 45.5146C336.765 46.4001 336.594 47.0365 336.314 47.4238C336.037 47.8079 335.613 48 335.04 48H334.673L334.669 47.0137L334.913 46.9893C335.173 46.9535 335.362 46.7956 335.479 46.5156C335.6 46.2324 335.676 45.7181 335.709 44.9727L335.806 42.7168H339.605ZM342.344 44.3965H343.506C343.939 44.3965 344.317 44.4714 344.639 44.6211C344.961 44.7708 345.205 44.9808 345.371 45.251C345.541 45.5212 345.625 45.8353 345.625 46.1934C345.625 46.737 345.433 47.1732 345.049 47.502C344.665 47.8307 344.154 47.9967 343.516 48H341.158V42.7168H342.344V44.3965ZM342.344 45.3486V47.0527H343.501C343.791 47.0527 344.019 46.9811 344.185 46.8379C344.354 46.6914 344.439 46.4847 344.439 46.2178C344.439 45.9508 344.356 45.7409 344.19 45.5879C344.027 45.4316 343.806 45.3519 343.526 45.3486H342.344Z" fill="#99A2AD"/>
</g>
<defs>
<filter id="filter0_dd" x="-4" y="0" width="368" height="56" filterUnits="userSpaceOnUse" color-interpolation-filters="sRGB">
<feFlood flood-opacity="0" result="BackgroundImageFix"/>
<feColorMatrix in="SourceAlpha" type="matrix" values="0 0 0 0 0 0 0 0 0 0 0 0 0 0 0 0 0 0 127 0"/>
<feOffset dy="-1"/>
<feGaussianBlur stdDeviation="2"/>
<feColorMatrix type="matrix" values="0 0 0 0 0 0 0 0 0 0 0 0 0 0 0 0 0 0 0.06 0"/>
<feBlend mode="normal" in2="BackgroundImageFix" result="effect1_dropShadow"/>
<feColorMatrix in="SourceAlpha" type="matrix" values="0 0 0 0 0 0 0 0 0 0 0 0 0 0 0 0 0 0 127 0"/>
<feOffset/>
<feGaussianBlur stdDeviation="1"/>
<feColorMatrix type="matrix" values="0 0 0 0 0 0 0 0 0 0 0 0 0 0 0 0 0 0 0.08 0"/>
<feBlend mode="normal" in2="effect1_dropShadow" result="effect2_dropShadow"/>
<feBlend mode="normal" in="SourceGraphic" in2="effect2_dropShadow" result="shape"/>
</filter>
</defs>
</svg>
